<?xml version="1.0" encoding="UTF-8"?>
<svg id="Layer_2" data-name="Layer 2" xmlns="http://www.w3.org/2000/svg" viewBox="0 0 1218.01 425.09">
  <defs>
    <style>
      .cls-1 {
        fill: #2c6dff;
      }

      .cls-1, .cls-2, .cls-3, .cls-4, .cls-5 {
        stroke-width: 0px;
      }

      .cls-2 {
        fill: #0137c5;
      }

      .cls-3 {
        fill: #04d;
      }

      .cls-4 {
        fill: #0047ff;
      }

      .cls-5 {
        fill: #0640c1;
      }
    </style>
  </defs>
  <g id="Layer_1-2" data-name="Layer 1">
    <g>
      <g>
        <path class="cls-2" d="M880.4,190.96v31.57c-21.24,29.34-73.74,30.04-108.7-39.88,34.5-50.46,78.65-58.88,102.13-34.05,3.33,10.42,5.46,21.37,6.24,32.7.22,3.19.33,6.41.33,9.66Z"/>
        <path class="cls-1" d="M880.4,190.96v72.08c0,8.69-.7,17.22-2.06,25.52-1.99,12.23-5.37,23.99-10,35.11h-291.87c-6.51-15.63-10.57-32.53-11.72-50.22-.05-.73-.09-1.46-.12-2.19-.14-2.72-.22-5.45-.22-8.21v-75.65c0-18.48,3.7-36.11,10.41-52.16,24.41-39.01,81.64-91.84,182.53,18.72,49.51,54.26,91.52,87.03,122.72,27.36.22,3.19.33,6.41.33,9.66Z"/>
        <path class="cls-3" d="M880.4,243.49v19.55c0,43.41-17.51,82.74-45.87,111.3-19.04,19.18-42.98,33.51-69.78,40.94-13.47,3.74-27.68,5.74-42.34,5.74-83.76,0-152.3-65.18-157.66-147.58-.05-.73-.09-1.46-.12-2.19-.14-2.72-.22-5.45-.22-8.21v-51.84c33.64-70.53,85.54-88.76,140.26-46.28,58.85,45.69,124.81,165.25,175.72,78.57Z"/>
        <path class="cls-4" d="M878.35,288.56c-5.39,33.2-21.14,62.94-43.81,85.78-19.04,19.18-42.98,33.51-69.78,40.94-13.47,3.74-27.68,5.74-42.34,5.74-83.76,0-152.3-65.18-157.66-147.58-.05-.73-.09-1.46-.12-2.19-.14-2.72-.22-5.45-.22-8.21v-53.52c26.8-62.57,88.13-96.57,157.86-20.12,59.59,65.34,95.85,154.65,156.06,99.16Z"/>
        <path class="cls-5" d="M834.53,374.34c-19.04,19.18-42.98,33.51-69.78,40.94-13.47,3.74-27.68,5.74-42.34,5.74-83.76,0-152.3-65.18-157.66-147.58,8.5-12.07,19.78-22.09,34.7-26.55,1-.3,1.98-.57,2.96-.8.02,0,.06-.02.09-.02,87.22-21.11,111.04,187.93,232.03,128.28Z"/>
        <path class="cls-3" d="M764.75,415.28c-13.47,3.74-27.68,5.74-42.34,5.74-83.76,0-152.3-65.18-157.66-147.58-.05-.73-.09-1.46-.12-2.19,10.89-13.3,24.03-22.28,37.78-25.16.02,0,.06-.02.09-.02,30.99-6.46,65.12,18,83.92,93.65,14.09,56.69,45.05,74.95,78.33,75.57Z"/>
        <circle class="cls-2" cx="771.7" cy="68.24" r="32.51"/>
      </g>
      <path class="cls-4" d="M147.5,425.09C67.36,425.09,0,359.46,0,265.39V0h26.71c30.2,0,51.1,17.42,51.1,54.01v91.17c15.68-22.65,42.39-47.62,84.78-47.62,79.56,0,140.53,65.04,140.53,157.37s-60.39,170.15-155.63,170.15ZM184.19,230.67c38.51-56.03-14.61-65.79-54.26-37.38-58.54,41.93-64.7,84.2-37.64,121.97,22.66,31.63,69.1,32.65,110.18,3.23,32.17-32.51-52.9-37.43-18.27-87.82Z"/>
      <path class="cls-4" d="M458.28,421.02c-64.46,0-99.3-34.26-99.3-97.56V0h22.07c38.91,0,55.75,22.65,55.75,52.26v263.65c0,31.36,16.26,41.23,52.84,41.23h20.91v16.84c0,33.68-18,47.04-52.27,47.04Z"/>
      <path class="cls-4" d="M1071.09,295.01h-48.63c-1.32,0-2.3,1.2-2.06,2.49,6.93,38.05,42.37,61.97,87.28,61.97,32.26,0,70.24-6.29,95.22-29.07.38-.35.88-.55,1.4-.55h0c1.16,0,2.1.94,2.1,2.1v22.3c0,40.07-27.29,70.85-113.24,70.85-77.82,0-153.89-61.56-153.89-157.38,0-104.53,63.88-170.15,153.31-170.15,65.04,0,125.43,46.46,125.43,121.37,0,57.49-43.55,76.08-146.92,76.08ZM1085.61,162.6c-37.75,0-63.88,30.78-65.62,66.78l-.46,8.24c-.07,1.2.89,2.21,2.09,2.21h0c29.76-22.23,67.71-30.5,103.99-22.56,15.99,3.5,19.23,4.79,19.23-7.64,0-31.36-23.23-47.04-59.23-47.04Z"/>
    </g>
  </g>
</svg>